<svg xmlns="http://www.w3.org/2000/svg" xmlns:xlink="http://www.w3.org/1999/xlink" width="900" zoomAndPan="magnify" viewBox="0 0 675 449.999984" height="600" preserveAspectRatio="xMidYMid meet" version="1.0"><defs><g/><clipPath id="id1"><path d="M 164.953125 3 L 531 3 L 531 326 L 164.953125 326 Z M 164.953125 3 " clip-rule="nonzero"/></clipPath><clipPath id="id2"><path d="M 328.945312 92 L 536.695312 92 L 536.695312 332.632812 L 328.945312 332.632812 Z M 328.945312 92 " clip-rule="nonzero"/></clipPath></defs><g clip-path="url(#id1)"><path fill="#8247e5" d="M 441.925781 101.613281 C 435.242188 97.785156 426.644531 97.785156 419.003906 101.613281 L 365.519531 133.171875 L 329.226562 153.253906 L 276.699219 184.808594 C 270.011719 188.636719 261.417969 188.636719 253.777344 184.808594 L 212.707031 159.945312 C 206.023438 156.121094 201.246094 148.472656 201.246094 139.863281 L 201.246094 92.050781 C 201.246094 84.398438 205.066406 76.75 212.707031 71.96875 L 253.777344 48.058594 C 260.460938 44.234375 269.058594 44.234375 276.699219 48.058594 L 317.765625 72.921875 C 324.453125 76.75 329.226562 84.398438 329.226562 93.003906 L 329.226562 124.5625 L 365.519531 103.523438 L 365.519531 71.011719 C 365.519531 63.359375 361.699219 55.710938 354.058594 50.929688 L 277.652344 5.980469 C 270.96875 2.15625 262.371094 2.15625 254.730469 5.980469 L 176.414062 51.882812 C 168.773438 55.710938 164.953125 63.359375 164.953125 71.011719 L 164.953125 160.902344 C 164.953125 168.554688 168.773438 176.203125 176.414062 180.984375 L 253.777344 225.929688 C 260.460938 229.757812 269.058594 229.757812 276.699219 225.929688 L 329.226562 195.328125 L 365.519531 174.292969 L 418.050781 143.691406 C 424.734375 139.863281 433.332031 139.863281 440.972656 143.691406 L 482.039062 167.597656 C 488.726562 171.421875 493.5 179.074219 493.5 187.679688 L 493.5 235.496094 C 493.5 243.144531 489.679688 250.796875 482.039062 255.578125 L 441.925781 279.484375 C 435.242188 283.308594 426.644531 283.308594 419.003906 279.484375 L 377.9375 255.578125 C 371.25 251.75 366.476562 244.101562 366.476562 235.496094 L 366.476562 204.894531 L 330.183594 225.929688 L 330.183594 257.488281 C 330.183594 265.140625 334.003906 272.789062 341.644531 277.570312 L 419.003906 322.519531 C 425.691406 326.34375 434.285156 326.34375 441.925781 322.519531 L 519.289062 277.570312 C 525.972656 273.746094 530.75 266.097656 530.75 257.488281 L 530.75 166.640625 C 530.75 158.992188 526.929688 151.339844 519.289062 146.558594 Z M 441.925781 101.613281 " fill-opacity="1" fill-rule="nonzero"/></g><g clip-path="url(#id2)"><path fill="#2a5ada" d="M 432.820312 92.351562 L 410.839844 105.003906 L 350.929688 139.65625 L 328.945312 152.304688 L 328.945312 272.214844 L 350.929688 284.863281 L 411.386719 319.515625 L 433.371094 332.167969 L 455.355469 319.515625 L 514.710938 284.863281 L 536.695312 272.214844 L 536.695312 152.304688 L 514.710938 139.65625 L 454.804688 105.003906 Z M 372.914062 246.910156 L 372.914062 177.605469 L 432.820312 142.953125 L 492.730469 177.605469 L 492.730469 246.910156 L 432.820312 281.5625 Z M 372.914062 246.910156 " fill-opacity="1" fill-rule="nonzero"/></g><g fill="#8247e5" fill-opacity="1"><g transform="translate(138.811072, 415.81763)"><g><path d="M 4.621094 0 L 19.378906 0 L 19.378906 -18.960938 L 29.394531 -18.960938 C 43.375 -18.960938 52.109375 -27.246094 52.109375 -39.917969 C 52.109375 -52.46875 43.554688 -61.054688 29.839844 -61.054688 L 4.621094 -61.054688 Z M 19.378906 -30.585938 L 19.378906 -49.160156 L 26.652344 -49.160156 C 33.269531 -49.160156 36.816406 -45.582031 36.816406 -39.917969 C 36.816406 -34.285156 33.269531 -30.585938 26.652344 -30.585938 Z M 19.378906 -30.585938 "/></g></g></g><g fill="#8247e5" fill-opacity="1"><g transform="translate(193.544935, 415.81763)"><g><path d="M 25.996094 0.863281 C 40.394531 0.863281 49.128906 -8.644531 49.128906 -22.746094 C 49.128906 -36.875 40.394531 -46.386719 25.996094 -46.386719 C 11.597656 -46.386719 2.863281 -36.875 2.863281 -22.746094 C 2.863281 -8.644531 11.597656 0.863281 25.996094 0.863281 Z M 26.085938 -10.136719 C 20.6875 -10.136719 17.707031 -15.261719 17.707031 -22.835938 C 17.707031 -30.4375 20.6875 -35.59375 26.085938 -35.59375 C 31.300781 -35.59375 34.285156 -30.4375 34.285156 -22.835938 C 34.285156 -15.261719 31.300781 -10.136719 26.085938 -10.136719 Z M 26.085938 -10.136719 "/></g></g></g><g fill="#8247e5" fill-opacity="1"><g transform="translate(245.536132, 415.81763)"><g><path d="M 19.199219 -61.054688 L 4.621094 -61.054688 L 4.621094 0 L 19.199219 0 Z M 19.199219 -61.054688 "/></g></g></g><g fill="#8247e5" fill-opacity="1"><g transform="translate(269.355496, 415.81763)"><g><path d="M 13.535156 17.171875 C 24.027344 17.171875 29.246094 11.863281 31.777344 4.382812 L 49.039062 -45.789062 L 33.6875 -45.789062 L 25.132812 -13.117188 L 24.652344 -13.117188 L 16.21875 -45.789062 L 0.953125 -45.789062 L 17.230469 1.667969 L 16.664062 3.039062 C 15.261719 6.46875 12.101562 6.527344 7.8125 5.128906 L 4.589844 15.710938 C 6.796875 16.605469 10.046875 17.171875 13.535156 17.171875 Z M 13.535156 17.171875 "/></g></g></g><g fill="#2a5ada" fill-opacity="1"><g transform="translate(323.108101, 415.81763)"><g><path d="M 56.582031 -61.054688 L 41.855469 -61.054688 L 41.855469 -25.875 L 41.347656 -25.875 L 17.320312 -61.054688 L 4.621094 -61.054688 L 4.621094 0 L 19.378906 0 L 19.378906 -35.238281 L 19.765625 -35.238281 L 44.0625 0 L 56.582031 0 Z M 56.582031 -61.054688 "/></g></g></g><g fill="#2a5ada" fill-opacity="1"><g transform="translate(384.311044, 415.81763)"><g><path d="M 25.996094 0.863281 C 40.394531 0.863281 49.128906 -8.644531 49.128906 -22.746094 C 49.128906 -36.875 40.394531 -46.386719 25.996094 -46.386719 C 11.597656 -46.386719 2.863281 -36.875 2.863281 -22.746094 C 2.863281 -8.644531 11.597656 0.863281 25.996094 0.863281 Z M 26.085938 -10.136719 C 20.6875 -10.136719 17.707031 -15.261719 17.707031 -22.835938 C 17.707031 -30.4375 20.6875 -35.59375 26.085938 -35.59375 C 31.300781 -35.59375 34.285156 -30.4375 34.285156 -22.835938 C 34.285156 -15.261719 31.300781 -10.136719 26.085938 -10.136719 Z M 26.085938 -10.136719 "/></g></g></g><g fill="#2a5ada" fill-opacity="1"><g transform="translate(436.302241, 415.81763)"><g><path d="M 21.34375 0.65625 C 28.261719 0.65625 32.375 -3.191406 34.222656 -7.421875 L 34.671875 -7.421875 L 34.671875 0 L 49.097656 0 L 49.097656 -61.054688 L 34.523438 -61.054688 L 34.523438 -37.949219 L 34.222656 -37.949219 C 32.496094 -42.152344 28.5 -46.386719 21.285156 -46.386719 C 11.714844 -46.386719 3.039062 -39.023438 3.039062 -22.867188 C 3.039062 -7.273438 11.238281 0.65625 21.34375 0.65625 Z M 26.414062 -10.703125 C 21.015625 -10.703125 18.007812 -15.503906 18.007812 -22.894531 C 18.007812 -30.257812 20.988281 -35 26.414062 -35 C 31.75 -35 34.851562 -30.378906 34.851562 -22.894531 C 34.851562 -15.472656 31.71875 -10.703125 26.414062 -10.703125 Z M 26.414062 -10.703125 "/></g></g></g><g fill="#2a5ada" fill-opacity="1"><g transform="translate(490.022527, 415.81763)"><g><path d="M 26.027344 0.863281 C 38.039062 0.863281 45.941406 -4.949219 47.609375 -13.953125 L 34.222656 -14.339844 C 33.089844 -11.296875 30.109375 -9.660156 26.292969 -9.660156 C 20.6875 -9.660156 17.230469 -13.386719 17.230469 -18.988281 L 17.230469 -19.378906 L 47.757812 -19.378906 L 47.757812 -23.015625 C 47.757812 -38.097656 38.574219 -46.386719 25.578125 -46.386719 C 11.746094 -46.386719 2.863281 -36.90625 2.863281 -22.714844 C 2.863281 -8.050781 11.625 0.863281 26.027344 0.863281 Z M 17.230469 -27.84375 C 17.441406 -32.40625 21.046875 -35.863281 25.875 -35.863281 C 30.675781 -35.863281 34.132812 -32.523438 34.195312 -27.84375 Z M 17.230469 -27.84375 "/></g></g></g><g fill="#2a5ada" fill-opacity="1"><g transform="translate(540.642392, 415.81763)"><g><path d="M 44.597656 -31.808594 C 43.824219 -40.871094 36.398438 -46.386719 24 -46.386719 C 11.597656 -46.386719 3.695312 -40.992188 3.757812 -31.808594 C 3.695312 -24.773438 8.199219 -20.242188 17.351562 -18.542969 L 25.339844 -17.023438 C 29.125 -16.277344 30.855469 -15.085938 30.914062 -13.058594 C 30.855469 -10.761719 28.292969 -9.242188 24.566406 -9.242188 C 20.421875 -9.242188 17.617188 -11.03125 16.992188 -14.371094 L 2.59375 -14.011719 C 3.636719 -4.949219 11.417969 0.863281 24.503906 0.863281 C 36.757812 0.863281 45.671875 -5.246094 45.730469 -14.667969 C 45.671875 -21.34375 41.257812 -25.308594 32.136719 -27.070312 L 23.3125 -28.738281 C 19.4375 -29.511719 18.183594 -30.882812 18.214844 -32.644531 C 18.183594 -34.96875 20.898438 -36.398438 24.265625 -36.398438 C 28.113281 -36.398438 30.796875 -34.34375 31.210938 -31.449219 Z M 44.597656 -31.808594 "/></g></g></g></svg>